<?xml version="1.0" standalone="no"?><!DOCTYPE svg PUBLIC "-//W3C//DTD SVG 1.1//EN" "http://www.w3.org/Graphics/SVG/1.1/DTD/svg11.dtd"><svg t="1729261964181" class="icon" viewBox="0 0 1024 1024" version="1.1" xmlns="http://www.w3.org/2000/svg" p-id="13491" xmlns:xlink="http://www.w3.org/1999/xlink" width="200" height="200"><path d="M513.92 129.28a48 48 0 0 1 4.288 62.976l-4.288 4.928L231.04 480l282.88 282.88a48 48 0 0 1 4.288 62.912l-4.288 4.928a48 48 0 0 1-62.976 4.288l-4.864-4.288-316.8-316.8a48 48 0 0 1-4.288-62.976l4.288-4.864 316.8-316.8a48 48 0 0 1 67.84 0z" fill="#1890FF" p-id="13492"></path><path d="M896 432a48 48 0 0 1 6.528 95.552L896 528H192a48 48 0 0 1-6.528-95.552L192 432h704z" fill="#1890FF" p-id="13493"></path></svg>